# xmcd CD database file
#
# Track frame offsets:
#	150
#	20700
#	38732
#	54372
#	61140
#	77395
#	91495
#	113237
#	123742
#	145012
#
# Disc length: 2084 seconds
#
# Revision: 0
# Processed by: cddbd v1.4PL0 Copyright (c) Steve Scherf et al.
# Submitted via: CDex 1.50Beta7
#
DISCID=7d08220a
DTITLE=Holger Biege - Zugvögel
DYEAR=1900
DGENRE=Blues
TTITLE0=Was ist los?
TTITLE1=Ich steck' in deiner Haut
TTITLE2=Blues in deutsch
TTITLE3=Improvisation III
TTITLE4=Uns're Zeit
TTITLE5=Das sind nur Worte
TTITLE6=Zugvögel
TTITLE7=Improvisation IV
TTITLE8=Und wir bau'n ein Haus
TTITLE9=Gutenachtlied
EXTD=
EXTT0=
EXTT1=
EXTT2=
EXTT3=
EXTT4=
EXTT5=
EXTT6=
EXTT7=
EXTT8=
EXTT9=
PLAYORDER=
